<?xml version="1.0" encoding="UTF-8"?>
<svg width="1102px" height="202px" viewBox="0 0 1102 202" version="1.1" xmlns="http://www.w3.org/2000/svg" xmlns:xlink="http://www.w3.org/1999/xlink">
    <title>Spec landing page</title>
    <defs>
        <circle id="path-1" cx="75.5" cy="75.5" r="75.5"></circle>
        <linearGradient x1="31.9443722%" y1="17.2133881%" x2="82.3634194%" y2="51.2403673%" id="linearGradient-3">
            <stop stop-color="#F213A4" offset="0%"></stop>
            <stop stop-color="#E011A7" offset="15.17%"></stop>
            <stop stop-color="#B20DAF" offset="45.54%"></stop>
            <stop stop-color="#6806BB" offset="87.89%"></stop>
            <stop stop-color="#5204BF" offset="100%"></stop>
        </linearGradient>
        <linearGradient x1="35.8354392%" y1="17.2133674%" x2="76.3196565%" y2="46.9389658%" id="linearGradient-4">
            <stop stop-color="#F213A4" offset="0%"></stop>
            <stop stop-color="#E011A7" offset="15.17%"></stop>
            <stop stop-color="#B20DAF" offset="45.54%"></stop>
            <stop stop-color="#6806BB" offset="87.89%"></stop>
            <stop stop-color="#5204BF" offset="100%"></stop>
        </linearGradient>
    </defs>
    <g id="Exports" stroke="none" stroke-width="1" fill="none" fill-rule="evenodd">
        <g id="Group-23">
            <g id="Oval-2">
                <mask id="mask-2" fill="white">
                    <use xlink:href="#path-1"></use>
                </mask>
                <use id="Oval" fill="#FFFFFF" xlink:href="#path-1"></use>
            </g>
            <g id="thirdweb" transform="translate(30.000000, 50.000000)" fill-rule="nonzero">
                <path d="M0.251150447,4.71174929 C-0.666585256,2.44686878 1.04374151,0 3.54665398,0 L19.085685,0 C20.5456582,0 21.8387315,0.849328011 22.381201,2.16375653 L34.74965,32.335069 C35.08345,33.1440609 35.08345,34.0539149 34.74965,34.883149 L26.9697903,53.8311131 C25.7809626,56.7229623 21.5675859,56.7229623 20.3787582,53.8311131 L0.251150447,4.71174929 Z" id="Path" fill="url(#linearGradient-3)"></path>
                <path d="M29.2080102,4.67778942 C28.3964758,2.40044387 30.0599997,0 32.4539739,0 L45.6210057,0 C47.0817328,0 48.3801183,0.923246282 48.8669694,2.29786489 L59.802195,32.908663 C60.065935,33.6676483 60.065935,34.5089589 59.802195,35.2884813 L53.2288363,53.6919728 C52.1334212,56.7693424 47.8323239,56.7693424 46.7367352,53.6919728 L29.2080102,4.67778942 Z" id="Path" fill="url(#linearGradient-4)"></path>
                <path d="M56.251134,4.71174929 C55.3334513,2.44686878 57.0436863,0 59.5466521,0 L75.085675,0 C76.5456492,0 77.8389017,0.849328011 78.3811931,2.16375653 L90.7496499,32.335069 C91.08345,33.1440609 91.08345,34.0539149 90.7496499,34.883149 L82.9697853,53.8311131 C81.7809568,56.7229623 77.567756,56.7229623 76.3787491,53.8311131 L56.251134,4.71174929 Z" id="Path" fill="url(#linearGradient-3)"></path>
            </g>
            <g id="Group-4" transform="translate(184.000000, 19.000000)">
                <g id="verified" fill-rule="nonzero">
                    <path d="M8.56057014,0.395351994 C8.80754923,0.142533359 9.14604866,0 9.49948314,0 C9.85291763,0 10.1914171,0.142533359 10.4383961,0.395351994 L12.4270551,2.43151072 L15.2730856,2.39746918 C15.6267005,2.39317726 15.9670866,2.53175586 16.2171485,2.78181777 C16.4672104,3.03187968 16.605789,3.37226577 16.6014971,3.72588067 L16.5674556,6.57191123 L18.6036143,8.56057014 C19.1316539,9.07515147 19.1316539,9.92381482 18.6036143,10.4383961 L16.5674556,12.4270551 L16.6014971,15.2730856 C16.605789,15.6267005 16.4672104,15.9670866 16.2171485,16.2171485 C15.9670866,16.4672104 15.6267005,16.605789 15.2730856,16.6014971 L12.4270551,16.5674556 L10.4383961,18.6036143 C10.1914171,18.8564329 9.85291763,18.9989663 9.49948314,18.9989663 C9.14604866,18.9989663 8.80754923,18.8564329 8.56057014,18.6036143 L6.57191123,16.5674556 L3.72588067,16.6014971 C3.37226577,16.605789 3.03187968,16.4672104 2.78181777,16.2171485 C2.53175586,15.9670866 2.39317726,15.6267005 2.39746918,15.2730856 L2.43151072,12.4270551 L0.395351994,10.4383961 C0.142533359,10.1914171 0,9.85291763 0,9.49948314 C0,9.14604866 0.142533359,8.80754923 0.395351994,8.56057014 L2.43151072,6.57191123 L2.39746918,3.72588067 C2.39317726,3.37226577 2.53175586,3.03187968 2.78181777,2.78181777 C3.03187968,2.53175586 3.37226577,2.39317726 3.72588067,2.39746918 L6.57191123,2.43151072 L8.56057014,0.395351994 Z" id="Shape" fill="#64ACFF"></path>
                    <path d="M13.7728831,7.61532383 C14.065263,7.30353139 14.0573454,6.81594564 13.7549965,6.51381055 C13.4526476,6.21167546 12.9650564,6.20410287 12.6534708,6.49670319 L7.89478107,11.2546013 L6.39537025,9.75598214 C6.08473818,9.45596365 5.59097294,9.46025433 5.28560154,9.76562573 C4.98023015,10.0709971 4.97593946,10.5647624 5.27595795,10.8753944 L7.89478107,13.4942176 L13.7728831,7.61611549 L13.7728831,7.61532383 Z" id="Path" fill="#FFFFFF"></path>
                </g>
                <text id="Verified-Source" font-family="AvenirNext-Regular, Avenir Next" font-size="13" font-weight="normal" letter-spacing="0.108333333" fill="#D2D2E6">
                    <tspan x="28" y="15">Verified Source</tspan>
                </text>
            </g>
            <text id="by-@thirdweb" font-family="AvenirNext-Regular, Avenir Next" font-size="14" font-weight="normal" letter-spacing="0.116666667">
                <tspan x="183" y="136" fill="#D2D2E6" fill-opacity="0.798213505"> by</tspan>
                <tspan x="202.6" y="136" fill="#D2D2E6"> </tspan>
                <tspan x="206.216667" y="136" fill="#FFFFFF">@thirdweb</tspan>
                <tspan x="275.642667" y="136" fill="#D2D2E6"> </tspan>
            </text>
            <circle id="Oval" fill-opacity="0.245615" fill="#727A92" cx="287.5" cy="132.5" r="1.5"></circle>
            <circle id="Oval" fill-opacity="0.245615" fill="#727A92" cx="346.5" cy="131.5" r="1.5"></circle>
            <circle id="Oval" fill-opacity="0.245615" fill="#727A92" cx="503.5" cy="131.5" r="1.5"></circle>
            <text id="v1.0.0" font-family="AvenirNext-Regular, Avenir Next" font-size="13" font-weight="normal" letter-spacing="0.108333333" fill="#727A92">
                <tspan x="299" y="135">v1.0.0</tspan>
            </text>
            <text id="published-3-days-ago" font-family="AvenirNext-Regular, Avenir Next" font-size="13" font-weight="normal" letter-spacing="0.108333333" fill="#727A92">
                <tspan x="360" y="134">published 3 days ago</tspan>
            </text>
            <text id="Represents-a-token-l" font-family="AvenirNext-Regular, Avenir Next" font-size="15" font-weight="normal" letter-spacing="0.125" fill="#D2D2E6" fill-opacity="0.802338287">
                <tspan x="4" y="197">Represents a token listing (either a direct listing or an auction) in a thirdweb marketplace contract. </tspan>
            </text>
            <text id="ACTIVE-SUBSCRIPTIONS" font-family="AvenirNext-Regular, Avenir Next" font-size="10" font-weight="normal" letter-spacing="0.35" fill="#D2D2E6" fill-opacity="0.804332386">
                <tspan x="981" y="193">ACTIVE SUBSCRIPTIONS</tspan>
            </text>
            <g id="Group-5" transform="translate(1065.000000, 156.000000)" fill="#FFFFFF">
                <text id="1" font-family="AvenirNext-Regular, Avenir Next" font-size="15" font-weight="normal" letter-spacing="0.125">
                    <tspan x="0.175" y="15">1</tspan>
                </text>
                <g id="sub" transform="translate(17.000000, 4.000000)" fill-rule="nonzero">
                    <path d="M13.4319755,10.8591582 C13.5251565,10.9524719 13.6527644,11.0033824 13.7846158,10.9996596 C13.9164772,10.9959379 14.0410295,10.9381152 14.1287488,10.8396188 C15.4290226,9.3649476 16.1465534,7.46637981 16.1465534,5.50016284 C16.1465534,3.53394585 15.4290226,1.6355142 14.1287488,0.160706826 C13.9538204,-0.0364218985 13.6522098,-0.0547634117 13.4546727,0.119899513 C13.2570131,0.294429733 13.2381373,0.595894099 13.4121367,0.793975633 C14.5579538,2.09384104 15.1902766,3.76724037 15.1902766,5.50015604 C15.1902766,7.23296963 14.5579538,8.90643703 13.4121367,10.2063364 C13.2451847,10.3948253 13.2538246,10.6808678 13.4319425,10.8590085 L13.4319755,10.8591582 Z M2.71461095,10.8591582 C2.8927312,10.681038 2.90137111,10.3949716 2.73441672,10.2064862 C1.58859961,8.90648465 0.956276799,7.23308529 0.956276799,5.50030576 C0.956276799,3.76735606 1.58859961,2.09402479 2.73441672,0.794125367 C2.90841609,0.596067648 2.88954032,0.294582861 2.69188074,0.120049239 C2.49435388,-0.0546136852 2.19274659,-0.036272172 2.01780462,0.160856552 C0.717530873,1.63566392 0,3.53409558 0,5.50031257 C0,7.46639348 0.717530873,9.36496119 2.01780462,10.8397686 C2.10553422,10.9382649 2.23008636,10.99609 2.36193768,10.9998093 C2.49379921,11.0035314 2.62140714,10.9526216 2.71457794,10.8593079 L2.71461095,10.8591582 Z M4.74252212,8.83124701 L4.74238917,8.83111406 C4.91665396,8.65445705 4.92795151,8.37424368 4.76857533,8.18415888 C4.15125922,7.42596361 3.814034,6.47805792 3.814034,5.50027493 C3.814034,4.52249194 4.15126603,3.57458622 4.76857533,2.81639095 C4.92795253,2.62617688 4.91665498,2.34597708 4.74238917,2.16929966 C4.64881002,2.07425727 4.51960614,2.02281596 4.38641409,2.02773312 C4.25308933,2.03251859 4.12800634,2.09326575 4.04160045,2.19482124 C3.27622512,3.12635912 2.8577732,4.29463523 2.8577732,5.50027493 C2.8577732,6.70591464 3.27622512,7.87405466 4.04160045,8.80559249 C4.12800293,8.90728073 4.25308252,8.96789278 4.38641409,8.97268061 C4.51960614,8.97759879 4.64880662,8.9261565 4.74238917,8.83111406 L4.74252212,8.83124701 Z M11.7603116,2.02773312 C11.8936432,2.03252097 12.0187228,2.09326575 12.1051253,2.19482124 C12.8705006,3.12635912 13.2889525,4.29463523 13.2889525,5.50027493 C13.2889525,6.70591464 12.8705006,7.87405466 12.1051253,8.80559249 C12.0187194,8.90728073 11.8936364,8.96789553 11.7603116,8.97268061 C11.6271196,8.97759776 11.4979157,8.9261565 11.4043365,8.83111406 L11.4043365,8.83111406 L11.3522944,8.76865323 C11.2296673,8.5932833 11.2364818,8.35312014 11.3781504,8.18415888 C11.9954597,7.42596361 12.3326917,6.47805792 12.3326917,5.50027493 C12.3326917,4.52249194 11.9954665,3.57458622 11.3781504,2.81639095 C11.2187742,2.62617007 11.2300718,2.34595667 11.4043365,2.16929966 C11.4979191,2.07425727 11.6271196,2.02281494 11.7603116,2.02773312 Z M8.07329915,3.26857143 C9.29488153,3.26857143 10.2851697,4.25885962 10.2851697,5.48044201 C10.2851697,6.7020244 9.29488153,7.69231258 8.07329915,7.69231258 C6.85171677,7.69231258 5.86142858,6.7020244 5.86142858,5.48044201 C5.86142858,4.25885962 6.85171677,3.26857143 8.07329915,3.26857143 Z M8.07329915,4.05428572 C7.28565476,4.05428572 6.64714287,4.69279764 6.64714287,5.48044201 C6.64714287,6.26808638 7.28565476,6.9065983 8.07329915,6.9065983 C8.86094355,6.9065983 9.49945544,6.26808638 9.49945544,5.48044201 C9.49945544,4.69279764 8.86094355,4.05428572 8.07329915,4.05428572 Z" id="Shape"></path>
                </g>
            </g>
            <g id="ellipsis" transform="translate(1084.406250, 82.232639) rotate(90.000000) translate(-1084.406250, -82.232639) translate(1083.312500, 75.500000)" fill="#727A92" fill-rule="nonzero">
                <path d="M-5.63888889,6.73263889 C-5.63888889,6.12834201 -5.15326389,5.63888889 -4.54513889,5.63888889 C-3.94084201,5.63888889 -3.45138889,6.12451389 -3.45138889,6.73263889 C-3.45138889,7.33693577 -3.93701389,7.82638889 -4.54513889,7.82638889 C-5.14943576,7.82638889 -5.63888889,7.34076389 -5.63888889,6.73263889 Z M5.63888889,6.73263889 C5.63888889,6.12834201 6.12451389,5.63888889 6.73263889,5.63888889 C7.33693576,5.63888889 7.82638889,6.12451389 7.82638889,6.73263889 C7.82638889,7.33693577 7.34076389,7.82638889 6.73263889,7.82638889 C6.12834201,7.82638889 5.63888889,7.34076389 5.63888889,6.73263889 Z M-9.9999653e-10,6.73263889 C-9.9999653e-10,6.12834201 0.485625,5.63888889 1.09375,5.63888889 C1.69804687,5.63888889 2.1875,6.12451389 2.1875,6.73263889 C2.1875,7.33693577 1.701875,7.82638889 1.09375,7.82638889 C0.48945312,7.82638889 -9.9999653e-10,7.34076389 -9.9999653e-10,6.73263889 Z" id="Shape" transform="translate(1.093750, 6.732639) rotate(90.000000) translate(-1.093750, -6.732639) "></path>
            </g>
            <g id="github" transform="translate(517.000000, 123.000000)" fill="#727A92" fill-rule="nonzero">
                <path d="M7.5,0 C3.35625,0 0,3.30879083 0,7.39394598 C0,10.6657671 2.146875,13.4292544 5.128125,14.4089523 C5.503125,14.4736493 5.64375,14.2518309 5.64375,14.0577398 C5.64375,13.8821336 5.634375,13.2998603 5.634375,12.6806173 C3.75,13.0225873 3.2625,12.2277382 3.1125,11.8118287 C3.028125,11.5992528 2.6625,10.9430401 2.34375,10.7674338 C2.08125,10.6287973 1.70625,10.2868273 2.334375,10.2775849 C2.925,10.2683425 3.346875,10.813646 3.4875,11.0354644 C4.1625,12.1537988 5.240625,11.839556 5.671875,11.6454649 C5.7375,11.1648584 5.934375,10.8413733 6.15,10.6565247 C4.48125,10.471676 2.7375,9.83394817 2.7375,7.00576382 C2.7375,6.20167219 3.028125,5.53621706 3.50625,5.01864083 C3.43125,4.83379218 3.16875,4.07591273 3.58125,3.05924515 C3.58125,3.05924515 4.209375,2.86515407 5.64375,3.81712462 C6.24375,3.65076083 6.88125,3.56757893 7.51875,3.56757893 C8.15625,3.56757893 8.79375,3.65076083 9.39375,3.81712462 C10.828125,2.85591163 11.45625,3.05924515 11.45625,3.05924515 C11.86875,4.07591273 11.60625,4.83379218 11.53125,5.01864083 C12.009375,5.53621706 12.3,6.19242976 12.3,7.00576382 C12.3,9.84319058 10.546875,10.471676 8.878125,10.6565247 C9.15,10.8875855 9.384375,11.3312223 9.384375,12.0244047 C9.384375,13.0133449 9.375,13.8081941 9.375,14.0577398 C9.375,14.2518309 9.515625,14.4828917 9.890625,14.4089523 C12.9435433,13.3928913 14.9991763,10.5705738 15,7.39394598 C15,3.30879083 11.64375,0 7.5,0 Z" id="Path"></path>
            </g>
        </g>
    </g>
</svg>