<?xml version="1.0" encoding="UTF-8"?>
<svg width="91px" height="17px" viewBox="0 0 91 17" version="1.1" xmlns="http://www.w3.org/2000/svg" xmlns:xlink="http://www.w3.org/1999/xlink">
    <title>Spec landing page</title>
    <g id="Exports" stroke="none" stroke-width="1" fill="none" fill-rule="evenodd">
        <g id="Group-24">
            <g id="Group-15" transform="translate(0.000000, 1.000000)">
                <text id="v1.0.0" font-family="AvenirNext-Regular, Avenir Next" font-size="12" font-weight="normal" letter-spacing="0.1" fill="#727A92">
                    <tspan x="0" y="12">v1.0.0</tspan>
                </text>
                <polyline id="Path" stroke-opacity="0.578288899" stroke="#727A92" transform="translate(45.500000, 8.000000) rotate(90.000000) translate(-45.500000, -8.000000) " points="44 5 47 8 44 11"></polyline>
                <polyline id="Path" stroke-opacity="0.578288899" stroke="#727A92" transform="translate(45.500000, 8.000000) rotate(90.000000) translate(-45.500000, -8.000000) " points="44 5 47 8 44 11"></polyline>
            </g>
            <g id="github" transform="translate(76.000000, 0.000000)" fill="#727A92" fill-rule="nonzero">
                <path d="M7.5,0 C3.35625,0 0,3.30879083 0,7.39394598 C0,10.6657671 2.146875,13.4292544 5.128125,14.4089523 C5.503125,14.4736493 5.64375,14.2518309 5.64375,14.0577398 C5.64375,13.8821336 5.634375,13.2998603 5.634375,12.6806173 C3.75,13.0225873 3.2625,12.2277382 3.1125,11.8118287 C3.028125,11.5992528 2.6625,10.9430401 2.34375,10.7674338 C2.08125,10.6287973 1.70625,10.2868273 2.334375,10.2775849 C2.925,10.2683425 3.346875,10.813646 3.4875,11.0354644 C4.1625,12.1537988 5.240625,11.839556 5.671875,11.6454649 C5.7375,11.1648584 5.934375,10.8413733 6.15,10.6565247 C4.48125,10.471676 2.7375,9.83394817 2.7375,7.00576382 C2.7375,6.20167219 3.028125,5.53621706 3.50625,5.01864083 C3.43125,4.83379218 3.16875,4.07591273 3.58125,3.05924515 C3.58125,3.05924515 4.209375,2.86515407 5.64375,3.81712462 C6.24375,3.65076083 6.88125,3.56757893 7.51875,3.56757893 C8.15625,3.56757893 8.79375,3.65076083 9.39375,3.81712462 C10.828125,2.85591163 11.45625,3.05924515 11.45625,3.05924515 C11.86875,4.07591273 11.60625,4.83379218 11.53125,5.01864083 C12.009375,5.53621706 12.3,6.19242976 12.3,7.00576382 C12.3,9.84319058 10.546875,10.471676 8.878125,10.6565247 C9.15,10.8875855 9.384375,11.3312223 9.384375,12.0244047 C9.384375,13.0133449 9.375,13.8081941 9.375,14.0577398 C9.375,14.2518309 9.515625,14.4828917 9.890625,14.4089523 C12.9435433,13.3928913 14.9991763,10.5705738 15,7.39394598 C15,3.30879083 11.64375,0 7.5,0 Z" id="Path"></path>
            </g>
        </g>
    </g>
</svg>