<?xml version="1.0" encoding="UTF-8"?>
<svg width="9px" height="7px" viewBox="0 0 9 7" version="1.1" xmlns="http://www.w3.org/2000/svg" xmlns:xlink="http://www.w3.org/1999/xlink">
    <g id="Exports" stroke="none" stroke-width="1" fill="none" fill-rule="evenodd">
        <path d="M8.6318069,3.53367866 C8.6318069,3.51923237 8.64625319,3.51923237 8.64625319,3.5046847 C8.66069948,3.47569073 8.67524716,3.46124418 8.68969371,3.43225022 C8.68969371,3.41780392 8.70414,3.40325625 8.70414,3.3888097 C8.70414,3.37436315 8.71858629,3.34536918 8.71858629,3.33092263 C8.71858629,3.30192866 8.71858629,3.27303556 8.73303259,3.24404159 L8.73303259,3.21504763 L8.73303259,3.18605366 C8.73303259,3.1570597 8.73303259,3.12816659 8.71858629,3.09917263 C8.71858629,3.08472634 8.70414,3.05573211 8.70414,3.04128556 C8.70414,3.02683901 8.68969371,3.01229159 8.68969371,2.98339849 C8.67524741,2.9689522 8.67524741,2.93995797 8.66069974,2.92551142 C8.64625345,2.91106513 8.64625345,2.89651746 8.64625345,2.88207091 C8.63180716,2.85307694 8.60281293,2.82418384 8.57381897,2.79518987 L5.92347414,0.17381056 C5.69172672,-0.0579368534 5.32965517,-0.0579368534 5.09790517,0.17381056 C4.86615776,0.405557974 4.86615776,0.767629526 5.09790517,0.999379526 L6.73448276,2.63595711 L3.49034483,2.63595711 C1.56413793,2.63595711 0,4.20009504 0,6.12630194 C0,6.44492263 0.260637931,6.70556056 0.579258621,6.70556056 C0.89787931,6.70556056 1.15851724,6.44492263 1.15851724,6.12630194 C1.15851724,4.83733642 2.20127586,3.7945778 3.49024138,3.7945778 L6.74886207,3.7945778 L5.11228448,5.43115539 C4.88053707,5.6629028 4.88053707,6.02497435 5.11228448,6.25672435 C5.22815948,6.37259935 5.37292241,6.43048642 5.51780172,6.43048642 C5.66267069,6.43048642 5.80743103,6.37259935 5.92331897,6.25672435 L8.55918103,3.62086228 C8.588175,3.59186832 8.60262155,3.56297522 8.63161552,3.53398125 L8.6318069,3.53367866 Z" id="Path" fill="#00ded7" fill-rule="nonzero" transform="translate(4.366516, 3.352780) scale(1, -1) translate(-4.366516, -3.352780) "></path>
    </g>
</svg>